<?xml version="1.0" encoding="UTF-8" standalone="no"?>
<svg width="1731px" height="979px" viewBox="0 0 1731 979" version="1.1" xmlns="http://www.w3.org/2000/svg" xmlns:xlink="http://www.w3.org/1999/xlink" xmlns:sketch="http://www.bohemiancoding.com/sketch/ns">
    <!-- Generator: Sketch 3.2.2 (9983) - http://www.bohemiancoding.com/sketch -->
    <title>States</title>
    <desc>Created with Sketch.</desc>
    <defs></defs>
    <g id="Page-1" stroke="none" stroke-width="1" fill="none" fill-rule="evenodd" sketch:type="MSPage">
        <path d="M720,605.210526 L720,1 L1500,1 L1730,230.996866 L1730,821 L920,821 L720,605.210526 Z" id="Rectangle-1" stroke="#979797" fill-opacity="0.1" fill="#FFC7C7" sketch:type="MSShapeGroup"></path>
        <text id="START/STOP" sketch:type="MSTextLayer" transform="translate(1226.742120, 351.615077) rotate(-55.000000) translate(-1226.742120, -351.615077) " font-family="Helvetica" font-size="14" font-weight="normal" fill="#000000">
            <tspan x="1183.24212" y="357.115077">START/STOP</tspan>
        </text>
        <g id="White-1" sketch:type="MSLayerGroup" transform="translate(1101.000000, 231.000000)">
            <g id="Motor-Down" transform="translate(274.000000, 150.000000)">
                <path d="M50,100 C77.6142375,100 100,77.6142375 100,50 C100,22.3857625 77.6142375,0 50,0 C22.3857625,0 0,22.3857625 0,50 C0,77.6142375 22.3857625,100 50,100 Z" id="Oval-1" stroke="#979797" sketch:type="MSShapeGroup"></path>
                <text fill="#000000" sketch:type="MSTextLayer" font-family="Helvetica" font-size="14" font-weight="normal" sketch:alignment="middle">
                    <tspan x="12.265625" y="54">Motor Down</tspan>
                </text>
            </g>
            <g id="White-Wait" transform="translate(399.000000, 0.000000)">
                <path d="M50,100 C77.6142375,100 100,77.6142375 100,50 C100,22.3857625 77.6142375,0 50,0 C22.3857625,0 0,22.3857625 0,50 C0,77.6142375 22.3857625,100 50,100 Z" id="Oval-1" stroke="#979797" sketch:type="MSShapeGroup"></path>
                <text fill="#000000" sketch:type="MSTextLayer" font-family="Helvetica" font-size="14" font-weight="normal" sketch:alignment="middle">
                    <tspan x="16.0322266" y="54">White-Wait</tspan>
                </text>
            </g>
            <g id="Motor-Up" transform="translate(149.000000, 0.000000)">
                <path d="M50,100 C77.6142375,100 100,77.6142375 100,50 C100,22.3857625 77.6142375,0 50,0 C22.3857625,0 0,22.3857625 0,50 C0,77.6142375 22.3857625,100 50,100 Z" id="Oval-1" stroke="#979797" sketch:type="MSShapeGroup"></path>
                <text fill="#000000" sketch:type="MSTextLayer" font-family="Helvetica" font-size="14" font-weight="normal" sketch:alignment="middle">
                    <tspan x="21.2138672" y="54">Motor Up</tspan>
                </text>
            </g>
            <path d="M414,99 L369,159" id="Line-8" stroke="#979797" stroke-linecap="square" sketch:type="MSShapeGroup"></path>
            <path id="Line-8-decoration-1" d="M369,159 C372.108,156.606 374.772,154.554 377.88,152.16 C376.2,150.9 374.76,149.82 373.08,148.56 C371.652,152.214 370.428,155.346 369,159 C369,159 369,159 369,159 Z" stroke="#979797" stroke-linecap="square"></path>
            <path d="M491.5,99.5 L535.5,219.5" id="Line-10" stroke="#979797" stroke-linecap="square" sketch:type="MSShapeGroup"></path>
            <path id="Line-10-decoration-1" d="M535.22034,218.737292 C534.904878,214.826872 534.634482,211.475084 534.319019,207.564664 C532.347379,208.287599 530.657402,208.907257 528.685761,209.630192 C530.972864,212.817677 532.933238,215.549807 535.22034,218.737292 C535.22034,218.737292 535.22034,218.737292 535.22034,218.737292 Z" stroke="#979797" stroke-linecap="square"></path>
            <path d="M492.5,300.5 L388.5,338.5" id="Line-11" stroke="#4990E2" stroke-width="1.5" stroke-linecap="square" sketch:type="MSShapeGroup"></path>
            <path id="Line-11-decoration-1" d="M389.180858,338.251225 C393.091632,337.940184 396.443724,337.673577 400.354498,337.362536 C399.633793,335.390079 399.016046,333.699402 398.295341,331.726946 C395.105272,334.010444 392.370927,335.967727 389.180858,338.251225 C389.180858,338.251225 389.180858,338.251225 389.180858,338.251225 Z" stroke="#4990E2" stroke-width="1.5" stroke-linecap="square"></path>
            <path d="M375.5,236.5 L523.5,442.5" id="Line-12" stroke="#979797" stroke-linecap="square" sketch:type="MSShapeGroup"></path>
            <path id="Line-12-decoration-1" d="M523.118813,441.969429 C521.766021,438.286922 520.606486,435.130488 519.253695,431.447981 C517.548217,432.673275 516.086379,433.723528 514.380902,434.948822 C517.439171,437.406035 520.060544,439.512216 523.118813,441.969429 C523.118813,441.969429 523.118813,441.969429 523.118813,441.969429 Z" stroke="#979797" stroke-linecap="square"></path>
            <path d="M486.5,505.75 L255.5,505.75" id="Line-13" stroke="#4990E2" stroke-width="1.5" stroke-linecap="square" sketch:type="MSShapeGroup"></path>
            <path id="Line-13-decoration-1" d="M255.5,505.75 C259.28,506.8 262.52,507.7 266.3,508.75 C266.3,506.65 266.3,504.85 266.3,502.75 C262.52,503.8 259.28,504.7 255.5,505.75 C255.5,505.75 255.5,505.75 255.5,505.75 Z" stroke="#4990E2" stroke-width="1.5" stroke-linecap="square"></path>
            <path d="M0.5,200 L259,82.5" id="Line-9" stroke="#979797" stroke-linecap="square" sketch:type="MSShapeGroup" transform="translate(129.750000, 141.250000) scale(-1, 1) translate(-129.750000, -141.250000) "></path>
            <path id="Line-9-decoration-1" d="M258.133713,82.8937668 C254.258035,83.5020571 250.936025,84.0234488 247.060346,84.6317391 C247.929333,86.5435087 248.674178,88.1821684 249.543164,90.093938 C252.549856,87.5738781 255.127021,85.4138267 258.133713,82.8937668 C258.133713,82.8937668 258.133713,82.8937668 258.133713,82.8937668 Z" stroke="#979797" stroke-linecap="square"></path>
            <path d="M259,50 L389,50" id="Line-5" stroke="#979797" stroke-linecap="square" sketch:type="MSShapeGroup"></path>
            <path id="Line-5-decoration-1" d="M389,50 C385.22,48.95 381.98,48.05 378.2,47 C378.2,49.1 378.2,50.9 378.2,53 C381.98,51.95 385.22,51.05 389,50 C389,50 389,50 389,50 Z" stroke="#979797" stroke-linecap="square"></path>
            <path d="M9,50 L139,50" id="Line-3" stroke="#979797" stroke-linecap="square" sketch:type="MSShapeGroup"></path>
            <path id="Line-3-decoration-1" d="M139,50 C135.22,48.95 131.98,48.05 128.2,47 C128.2,49.1 128.2,50.9 128.2,53 C131.98,51.95 135.22,51.05 139,50 C139,50 139,50 139,50 Z" stroke="#979797" stroke-linecap="square"></path>
        </g>
        <text id="Timer-Motor-Down" sketch:type="MSTextLayer" transform="translate(1293.448198, 389.021891) rotate(24.000000) translate(-1293.448198, -389.021891) " font-family="Helvetica" font-size="14" font-weight="normal" fill="#000000">
            <tspan x="1235.9482" y="394.521891">Timer Motor Down</tspan>
        </text>
        <text id="Timer-Sort" sketch:type="MSTextLayer" transform="translate(1487.371707, 351.213806) rotate(-53.000000) translate(-1487.371707, -351.213806) " font-family="Helvetica" font-size="14" font-weight="normal" fill="#000000">
            <tspan x="1454.87171" y="356.713806">Timer Sort</tspan>
        </text>
        <text id="START/STOP" sketch:type="MSTextLayer" transform="translate(1626.235699, 388.131133) rotate(70.000000) translate(-1626.235699, -388.131133) " font-family="Helvetica" font-size="14" font-weight="normal" fill="#000000">
            <tspan x="1582.7357" y="393.631133">START/STOP</tspan>
        </text>
        <text id="START/STOP" sketch:type="MSTextLayer" transform="translate(1585.164155, 600.215631) rotate(55.000000) translate(-1585.164155, -600.215631) " font-family="Helvetica" font-size="14" font-weight="normal" fill="#000000">
            <tspan x="1541.66415" y="605.715631">START/STOP</tspan>
        </text>
        <g id="White-2" sketch:type="MSLayerGroup" transform="translate(970.000000, 531.000000)">
            <g id="Motor-Down" transform="translate(274.000000, 150.000000)">
                <path d="M50,100 C77.6142375,100 100,77.6142375 100,50 C100,22.3857625 77.6142375,0 50,0 C22.3857625,0 0,22.3857625 0,50 C0,77.6142375 22.3857625,100 50,100 Z" id="Oval-1" stroke="#979797" sketch:type="MSShapeGroup"></path>
                <text id="Motor-Down-2" fill="#000000" sketch:type="MSTextLayer" font-family="Helvetica" font-size="14" font-weight="normal" sketch:alignment="middle">
                    <tspan x="6.42773438" y="54">Motor Down 2</tspan>
                </text>
            </g>
            <g id="White-Wait" transform="translate(399.000000, 0.000000)">
                <path d="M50,100 C77.6142375,100 100,77.6142375 100,50 C100,22.3857625 77.6142375,0 50,0 C22.3857625,0 0,22.3857625 0,50 C0,77.6142375 22.3857625,100 50,100 Z" id="Oval-1" stroke="#979797" sketch:type="MSShapeGroup"></path>
                <text id="White-Wait-2" fill="#000000" sketch:type="MSTextLayer" font-family="Helvetica" font-size="14" font-weight="normal" sketch:alignment="middle">
                    <tspan x="10.1943359" y="54">White-Wait 2</tspan>
                </text>
            </g>
            <g id="Motor-Up" transform="translate(149.000000, 0.000000)">
                <path d="M50,100 C77.6142375,100 100,77.6142375 100,50 C100,22.3857625 77.6142375,0 50,0 C22.3857625,0 0,22.3857625 0,50 C0,77.6142375 22.3857625,100 50,100 Z" id="Oval-1" stroke="#979797" sketch:type="MSShapeGroup"></path>
                <text id="Motor-Up-2" fill="#000000" sketch:type="MSTextLayer" font-family="Helvetica" font-size="14" font-weight="normal" sketch:alignment="middle">
                    <tspan x="15.3759766" y="54">Motor Up 2</tspan>
                </text>
            </g>
            <path d="M414,99 L369,159" id="Line-8" stroke="#979797" stroke-linecap="square" sketch:type="MSShapeGroup"></path>
            <path id="Line-8-decoration-1" d="M369,159 C372.108,156.606 374.772,154.554 377.88,152.16 C376.2,150.9 374.76,149.82 373.08,148.56 C371.652,152.214 370.428,155.346 369,159 C369,159 369,159 369,159 Z" stroke="#979797" stroke-linecap="square"></path>
            <path d="M0.5,200 L259,82.5" id="Line-9" stroke="#979797" stroke-linecap="square" sketch:type="MSShapeGroup" transform="translate(129.750000, 141.250000) scale(-1, 1) translate(-129.750000, -141.250000) "></path>
            <path id="Line-9-decoration-1" d="M258.133713,82.8937668 C254.258035,83.5020571 250.936025,84.0234488 247.060346,84.6317391 C247.929333,86.5435087 248.674178,88.1821684 249.543164,90.093938 C252.549856,87.5738781 255.127021,85.4138267 258.133713,82.8937668 C258.133713,82.8937668 258.133713,82.8937668 258.133713,82.8937668 Z" stroke="#979797" stroke-linecap="square"></path>
            <path d="M259,50 L389,50" id="Line-5" stroke="#979797" stroke-linecap="square" sketch:type="MSShapeGroup"></path>
            <path id="Line-5-decoration-1" d="M389,50 C385.22,48.95 381.98,48.05 378.2,47 C378.2,49.1 378.2,50.9 378.2,53 C381.98,51.95 385.22,51.05 389,50 C389,50 389,50 389,50 Z" stroke="#979797" stroke-linecap="square"></path>
            <path d="M9,50 L139,50" id="Line-3" stroke="#979797" stroke-linecap="square" sketch:type="MSShapeGroup"></path>
            <path id="Line-3-decoration-1" d="M139,50 C135.22,48.95 131.98,48.05 128.2,47 C128.2,49.1 128.2,50.9 128.2,53 C131.98,51.95 135.22,51.05 139,50 C139,50 139,50 139,50 Z" stroke="#979797" stroke-linecap="square"></path>
        </g>
        <g id="Timer-Start-3" sketch:type="MSLayerGroup" transform="translate(1600.000000, 681.000000)">
            <path d="M50,100 C77.6142375,100 100,77.6142375 100,50 C100,22.3857625 77.6142375,0 50,0 C22.3857625,0 0,22.3857625 0,50 C0,77.6142375 22.3857625,100 50,100 Z" id="Oval-1" stroke="#979797" fill="#50E3C2" sketch:type="MSShapeGroup"></path>
            <path d="M50,100 C77.6142375,100 100,77.6142375 100,50 C100,22.3857625 77.6142375,0 50,0 C22.3857625,0 0,22.3857625 0,50 C0,77.6142375 22.3857625,100 50,100 Z" id="Oval-2" stroke="#979797" fill="#50E3C2" sketch:type="MSShapeGroup"></path>
            <text id="Timer-Start-4" fill="#000000" sketch:type="MSTextLayer" font-family="Helvetica" font-size="14" font-weight="normal" sketch:alignment="middle">
                <tspan x="9.8046875" y="54">Timer Start 4</tspan>
            </text>
        </g>
        <g id="Timer-Start-4" sketch:type="MSLayerGroup" transform="translate(1600.000000, 456.000000)">
            <path d="M50,100 C77.6142375,100 100,77.6142375 100,50 C100,22.3857625 77.6142375,0 50,0 C22.3857625,0 0,22.3857625 0,50 C0,77.6142375 22.3857625,100 50,100 Z" id="Oval-1" stroke="#979797" fill="#50E3C2" sketch:type="MSShapeGroup"></path>
            <path d="M50,100 C77.6142375,100 100,77.6142375 100,50 C100,22.3857625 77.6142375,0 50,0 C22.3857625,0 0,22.3857625 0,50 C0,77.6142375 22.3857625,100 50,100 Z" id="Oval-2" stroke="#979797" fill="#50E3C2" sketch:type="MSShapeGroup"></path>
            <text id="Timer-Start-3" fill="#000000" sketch:type="MSTextLayer" font-family="Helvetica" font-size="14" font-weight="normal" sketch:alignment="middle">
                <tspan x="9.8046875" y="54">Timer Start 3</tspan>
            </text>
        </g>
        <g id="Timer-Start-5" sketch:type="MSLayerGroup" transform="translate(1119.000000, 381.000000)">
            <path d="M50,100 C77.6142375,100 100,77.6142375 100,50 C100,22.3857625 77.6142375,0 50,0 C22.3857625,0 0,22.3857625 0,50 C0,77.6142375 22.3857625,100 50,100 Z" id="Oval-1" stroke="#979797" fill="#50E3C2" sketch:type="MSShapeGroup"></path>
            <path d="M50,100 C77.6142375,100 100,77.6142375 100,50 C100,22.3857625 77.6142375,0 50,0 C22.3857625,0 0,22.3857625 0,50 C0,77.6142375 22.3857625,100 50,100 Z" id="Oval-2" stroke="#979797" fill="#50E3C2" sketch:type="MSShapeGroup"></path>
            <text id="Timer-Start-2" fill="#000000" sketch:type="MSTextLayer" font-family="Helvetica" font-size="14" font-weight="normal" sketch:alignment="middle">
                <tspan x="9.8046875" y="54">Timer Start 2</tspan>
            </text>
        </g>
        <g id="Timer-Start-6" sketch:type="MSLayerGroup" transform="translate(874.000000, 381.000000)">
            <path d="M50,100 C77.6142375,100 100,77.6142375 100,50 C100,22.3857625 77.6142375,0 50,0 C22.3857625,0 0,22.3857625 0,50 C0,77.6142375 22.3857625,100 50,100 Z" id="Oval-1" stroke="#979797" fill="#50E3C2" sketch:type="MSShapeGroup"></path>
            <path d="M50,100 C77.6142375,100 100,77.6142375 100,50 C100,22.3857625 77.6142375,0 50,0 C22.3857625,0 0,22.3857625 0,50 C0,77.6142375 22.3857625,100 50,100 Z" id="Oval-2" stroke="#979797" fill="#50E3C2" sketch:type="MSShapeGroup"></path>
            <text id="Timer-Start-1" fill="#000000" sketch:type="MSTextLayer" font-family="Helvetica" font-size="14" font-weight="normal" sketch:alignment="middle">
                <tspan x="9.8046875" y="54">Timer Start 1</tspan>
            </text>
        </g>
        <g id="Base-States" sketch:type="MSLayerGroup" transform="translate(0.000000, 29.000000)">
            <g id="Running-State-2" transform="translate(1000.000000, 202.000000)">
                <path d="M50,100 C77.6142375,100 100,77.6142375 100,50 C100,22.3857625 77.6142375,0 50,0 C22.3857625,0 0,22.3857625 0,50 C0,77.6142375 22.3857625,100 50,100 Z" id="Oval-1" stroke="#979797" fill="#D8D8D8" sketch:type="MSShapeGroup"></path>
                <text fill="#000000" sketch:type="MSTextLayer" font-family="Helvetica" font-size="14" font-weight="normal" sketch:alignment="middle">
                    <tspan x="23.9243164" y="46">Running</tspan>
                    <tspan x="27.8173828" y="63">State 2</tspan>
                </text>
            </g>
            <g id="Running-State-3" transform="translate(1000.000000, 0.000000)">
                <path d="M50,100 C77.6142375,100 100,77.6142375 100,50 C100,22.3857625 77.6142375,0 50,0 C22.3857625,0 0,22.3857625 0,50 C0,77.6142375 22.3857625,100 50,100 Z" id="Oval-1" stroke="#979797" fill="#D8D8D8" sketch:type="MSShapeGroup"></path>
                <text fill="#000000" sketch:type="MSTextLayer" font-family="Helvetica" font-size="14" font-weight="normal" sketch:alignment="middle">
                    <tspan x="23.9243164" y="46">Running</tspan>
                    <tspan x="27.8173828" y="63">State 3</tspan>
                </text>
            </g>
            <g id="Running-State" transform="translate(750.000000, 202.000000)">
                <path d="M50,100 C77.6142375,100 100,77.6142375 100,50 C100,22.3857625 77.6142375,0 50,0 C22.3857625,0 0,22.3857625 0,50 C0,77.6142375 22.3857625,100 50,100 Z" id="Oval-1" stroke="#979797" fill="#D8D8D8" sketch:type="MSShapeGroup"></path>
                <text fill="#000000" sketch:type="MSTextLayer" font-family="Helvetica" font-size="14" font-weight="normal" sketch:alignment="middle">
                    <tspan x="23.9243164" y="46">Running</tspan>
                    <tspan x="33.6552734" y="63">State</tspan>
                </text>
            </g>
            <g id="Resting-State" transform="translate(500.000000, 202.000000)">
                <path d="M50,100 C77.6142375,100 100,77.6142375 100,50 C100,22.3857625 77.6142375,0 50,0 C22.3857625,0 0,22.3857625 0,50 C0,77.6142375 22.3857625,100 50,100 Z" id="Oval-1" stroke="#979797" fill="#D8D8D8" sketch:type="MSShapeGroup"></path>
                <text id="Resting" fill="#000000" sketch:type="MSTextLayer" font-family="Helvetica" font-size="14" font-weight="normal" sketch:alignment="middle">
                    <tspan x="26.265625" y="46">Resting</tspan>
                    <tspan x="33.6552734" y="63">State</tspan>
                </text>
            </g>
            <g id="Initial-State" transform="translate(0.000000, 202.000000)">
                <path d="M50,100 C77.6142375,100 100,77.6142375 100,50 C100,22.3857625 77.6142375,0 50,0 C22.3857625,0 0,22.3857625 0,50 C0,77.6142375 22.3857625,100 50,100 Z" id="Oval-1" stroke="#979797" fill="#D8D8D8" sketch:type="MSShapeGroup"></path>
                <path d="M50,95 C74.8528137,95 95,74.8528137 95,50 C95,25.1471863 74.8528137,5 50,5 C25.1471863,5 5,25.1471863 5,50 C5,74.8528137 25.1471863,95 50,95 Z" id="Oval-3" stroke="#979797" sketch:type="MSShapeGroup"></path>
                <text fill="#000000" sketch:type="MSTextLayer" font-family="Helvetica" font-size="14" font-weight="normal" sketch:alignment="middle">
                    <tspan x="15.3691406" y="54">Initial State</tspan>
                </text>
            </g>
            <g id="Initial-State-2" transform="translate(250.000000, 202.000000)">
                <path d="M50,100 C77.6142375,100 100,77.6142375 100,50 C100,22.3857625 77.6142375,0 50,0 C22.3857625,0 0,22.3857625 0,50 C0,77.6142375 22.3857625,100 50,100 Z" id="Oval-1" stroke="#979797" fill="#D8D8D8" sketch:type="MSShapeGroup"></path>
                <path d="M50,95 C74.8528137,95 95,74.8528137 95,50 C95,25.1471863 74.8528137,5 50,5 C25.1471863,5 5,25.1471863 5,50 C5,74.8528137 25.1471863,95 50,95 Z" id="Oval-3" stroke="#979797" sketch:type="MSShapeGroup"></path>
                <text fill="#000000" sketch:type="MSTextLayer" font-family="Helvetica" font-size="14" font-weight="normal" sketch:alignment="middle">
                    <tspan x="9.53125" y="54">Initial State 2</tspan>
                </text>
            </g>
        </g>
        <text id="START/STOP" sketch:type="MSTextLayer" font-family="Helvetica" font-size="14" font-weight="normal" fill="#000000">
            <tspan x="632" y="274">START/STOP</tspan>
        </text>
        <g id="State-9" sketch:type="MSLayerGroup" transform="translate(875.000000, 531.000000)">
            <path d="M50,100 C77.6142375,100 100,77.6142375 100,50 C100,22.3857625 77.6142375,0 50,0 C22.3857625,0 0,22.3857625 0,50 C0,77.6142375 22.3857625,100 50,100 Z" id="Oval-1" stroke="#979797" fill="#D8D8D8" sketch:type="MSShapeGroup"></path>
            <text id="After-Tick" fill="#000000" sketch:type="MSTextLayer" font-family="Helvetica" font-size="14" font-weight="normal" sketch:alignment="middle">
                <tspan x="20.8208008" y="54">After Tick</tspan>
            </text>
        </g>
        <g id="State-10" sketch:type="MSLayerGroup" transform="translate(625.000000, 803.000000)">
            <path d="M50,100 C77.6142375,100 100,77.6142375 100,50 C100,22.3857625 77.6142375,0 50,0 C22.3857625,0 0,22.3857625 0,50 C0,77.6142375 22.3857625,100 50,100 Z" id="Oval-1" stroke="#979797" fill="#D0011B" sketch:type="MSShapeGroup"></path>
            <text id="Abort" fill="#FFFFFF" sketch:type="MSTextLayer" font-family="Helvetica" font-size="14" font-weight="normal" sketch:alignment="middle">
                <tspan x="33.269043" y="54">Abort</tspan>
            </text>
        </g>
        <path d="M110,281 L240,281" id="Line" stroke="#979797" stroke-linecap="square" sketch:type="MSShapeGroup"></path>
        <path id="Line-decoration-1" d="M240,281 C236.22,279.95 232.98,279.05 229.2,278 C229.2,280.1 229.2,281.9 229.2,284 C232.98,282.95 236.22,282.05 240,281 C240,281 240,281 240,281 Z" stroke="#979797" stroke-linecap="square"></path>
        <path d="M610,281 L740,281" id="Line-2" stroke="#979797" stroke-linecap="square" sketch:type="MSShapeGroup"></path>
        <path id="Line-2-decoration-1" d="M740,281 C736.22,279.95 732.98,279.05 729.2,278 C729.2,280.1 729.2,281.9 729.2,284 C732.98,282.95 736.22,282.05 740,281 C740,281 740,281 740,281 Z" stroke="#979797" stroke-linecap="square"></path>
        <path d="M860,281 L990,281" id="Line-4" stroke="#979797" stroke-linecap="square" sketch:type="MSShapeGroup"></path>
        <path id="Line-4-decoration-1" d="M990,281 C986.22,279.95 982.98,279.05 979.2,278 C979.2,280.1 979.2,281.9 979.2,284 C982.98,282.95 986.22,282.05 990,281 C990,281 990,281 990,281 Z" stroke="#979797" stroke-linecap="square"></path>
        <path d="M1015,331 L970,391" id="Line-8" stroke="#979797" stroke-linecap="square" sketch:type="MSShapeGroup"></path>
        <path id="Line-8-decoration-1" d="M970,391 C973.108,388.606 975.772,386.554 978.88,384.16 C977.2,382.9 975.76,381.82 974.08,380.56 C972.652,384.214 971.428,387.346 970,391 C970,391 970,391 970,391 Z" stroke="#979797" stroke-linecap="square"></path>
        <path d="M880,331 L835,391" id="Line-9" stroke="#979797" stroke-linecap="square" sketch:type="MSShapeGroup" transform="translate(857.500000, 361.000000) scale(-1, 1) translate(-857.500000, -361.000000) "></path>
        <path id="Line-9-decoration-1" d="M835,391 C838.108,388.606 840.772,386.554 843.88,384.16 C842.2,382.9 840.76,381.82 839.08,380.56 C837.652,384.214 836.428,387.346 835,391 C835,391 835,391 835,391 Z" stroke="#979797" stroke-linecap="square"></path>
        <path d="M1040,226 L1040,133.498649" id="Line-6" stroke="#979797" stroke-linecap="square" sketch:type="MSShapeGroup"></path>
        <path id="Line-6-decoration-1" d="M1040,134 C1038.95,137.78 1038.05,141.02 1037,144.8 C1039.1,144.8 1040.9,144.8 1043,144.8 C1041.95,141.02 1041.05,137.78 1040,134 C1040,134 1040,134 1040,134 Z" stroke="#979797" stroke-linecap="square"></path>
        <path d="M1059.75,133.459131 L1059.75,226" id="Line-6" stroke="#4990E2" stroke-width="1.5" stroke-linecap="square" sketch:type="MSShapeGroup"></path>
        <path id="Line-6-decoration-1" d="M1059.75,225.459131 C1060.8,221.679131 1061.7,218.439131 1062.75,214.659131 C1060.65,214.659131 1058.85,214.659131 1056.75,214.659131 C1057.8,218.439131 1058.7,221.679131 1059.75,225.459131 C1059.75,225.459131 1059.75,225.459131 1059.75,225.459131 Z" stroke="#4990E2" stroke-width="1.5" stroke-linecap="square"></path>
        <path d="M1257,326 L1212.5,390.5" id="Line-14" stroke="#979797" stroke-linecap="square" sketch:type="MSShapeGroup"></path>
        <path id="Line-14-decoration-1" d="M1212.7052,390.202575 C1215.71606,387.687496 1218.2968,385.531714 1221.30766,383.016634 C1219.57913,381.824082 1218.09753,380.801894 1216.369,379.609342 C1215.08667,383.316974 1213.98753,386.494944 1212.7052,390.202575 C1212.7052,390.202575 1212.7052,390.202575 1212.7052,390.202575 Z" stroke="#979797" stroke-linecap="square"></path>
        <path d="M1167.75,488.5 L1167.75,524.5" id="Line-15" stroke="#4990E2" stroke-width="1.5" stroke-linecap="square" sketch:type="MSShapeGroup"></path>
        <path id="Line-15-decoration-1" d="M1167.75,524.5 C1168.8,520.72 1169.7,517.48 1170.75,513.7 C1168.65,513.7 1166.85,513.7 1164.75,513.7 C1165.8,517.48 1166.7,520.72 1167.75,524.5 C1167.75,524.5 1167.75,524.5 1167.75,524.5 Z" stroke="#4990E2" stroke-width="1.5" stroke-linecap="square"></path>
        <path d="M925.5,486 L925.5,526" id="Line-6" stroke="#4990E2" stroke-width="1.5" stroke-linecap="square" sketch:type="MSShapeGroup"></path>
        <path id="Line-6-decoration-1" d="M925.5,526 C926.55,522.22 927.45,518.98 928.5,515.2 C926.4,515.2 924.6,515.2 922.5,515.2 C923.55,518.98 924.45,522.22 925.5,526 C925.5,526 925.5,526 925.5,526 Z" stroke="#4990E2" stroke-width="1.5" stroke-linecap="square"></path>
        <path d="M1007.48782,241.637402 C1007.48782,241.637402 853.336182,138.886342 580.744476,138.886342 C308.152771,138.886342 91.6689454,241.637402 91.6689454,241.637402" id="Line" stroke="#979797" stroke-linecap="square" sketch:type="MSShapeGroup"></path>
        <path id="Line-decoration-1" d="M91.7436898,241.602086 C95.6131718,240.980289 98.9283434,240.483201 102.795423,239.931795 C101.957311,238.006291 101.238929,236.355858 100.400817,234.430354 C97.347937,236.917767 94.7484934,239.066567 91.7436898,241.602086 C91.7436898,241.602086 91.7436898,241.602086 91.7436898,241.602086 Z" stroke="#979797" stroke-linecap="square"></path>
        <path d="M766.044281,230.999998 C766.044281,230.999998 719.661835,175.703928 543.244995,175.703928 C366.828156,175.703928 101.770905,252.406628 101.770905,252.406628" id="Line-7" stroke="#979797" stroke-linecap="square" sketch:type="MSShapeGroup"></path>
        <path id="Line-7-decoration-1" d="M102.134431,252.301936 C106.048475,252.280905 109.408506,252.272501 113.32428,252.273306 C112.763923,250.249448 112.283617,248.514713 111.72326,246.490855 C108.358938,248.516385 105.478326,250.259784 102.134431,252.301936 C102.134431,252.301936 102.134431,252.301936 102.134431,252.301936 Z" stroke="#979797" stroke-linecap="square"></path>
        <path d="M820.413983,721.402027 L720.687047,821.128965" id="Line" stroke="#979797" stroke-linecap="square" sketch:type="MSShapeGroup"></path>
        <path id="Line-decoration-1" d="M720.711927,821.104084 C724.127253,819.173682 727.054675,817.519052 730.470001,815.588651 C728.985077,814.103726 727.712285,812.830934 726.22736,811.34601 C724.296959,814.761336 722.642329,817.688758 720.711927,821.104084 C720.711927,821.104084 720.711927,821.104084 720.711927,821.104084 Z" stroke="#979797" stroke-linecap="square"></path>
        <path d="M631.5,811.5 L83.5,332.5" id="Line" stroke="#979797" stroke-linecap="square" sketch:type="MSShapeGroup"></path>
        <path id="Line-decoration-1" d="M84.129313,333.050075 C86.2843182,336.328314 88.1314655,339.138233 90.2864707,342.416473 C91.6685131,340.835347 92.8531209,339.480096 94.2351633,337.89897 C90.6981157,336.201857 87.6663606,334.747188 84.129313,333.050075 C84.129313,333.050075 84.129313,333.050075 84.129313,333.050075 Z" stroke="#979797" stroke-linecap="square"></path>
        <text id="Push" sketch:type="MSTextLayer" font-family="Helvetica" font-size="14" font-weight="normal" fill="#000000">
            <tspan x="150" y="274">Push</tspan>
        </text>
        <path d="M361,282 L491,282" id="Line-17" stroke="#979797" stroke-linecap="square" sketch:type="MSShapeGroup"></path>
        <path id="Line-17-decoration-1" d="M491,282 C487.22,280.95 483.98,280.05 480.2,279 C480.2,281.1 480.2,282.9 480.2,285 C483.98,283.95 487.22,283.05 491,282 C491,282 491,282 491,282 Z" stroke="#979797" stroke-linecap="square"></path>
        <text id="Timer-Motor-Down" sketch:type="MSTextLayer" font-family="Helvetica" font-size="14" font-weight="normal" fill="#000000">
            <tspan x="365" y="275">Timer Motor Down</tspan>
        </text>
        <text id="Position-Sensor" sketch:type="MSTextLayer" font-family="Helvetica" font-size="14" font-weight="normal" fill="#000000">
            <tspan x="876" y="274">Position Sensor</tspan>
        </text>
        <text id="Color-Detector" sketch:type="MSTextLayer" font-family="Helvetica" font-size="14" font-weight="normal" fill="#000000">
            <tspan x="1127" y="276">Color Detector</tspan>
        </text>
        <text id="Color-Detector-2" sketch:type="MSTextLayer" font-family="Helvetica" font-size="14" font-weight="normal" fill="#000000">
            <tspan x="990" y="574">Color Detector</tspan>
        </text>
        <text id="Push-Button" sketch:type="MSTextLayer" font-family="Helvetica" font-size="14" font-weight="normal" fill="#000000">
            <tspan x="1381" y="274">Push Button</tspan>
        </text>
        <text id="Timer-Motor-Down-2" sketch:type="MSTextLayer" transform="translate(1119.448198, 668.021891) rotate(24.000000) translate(-1119.448198, -668.021891) " font-family="Helvetica" font-size="14" font-weight="normal" fill="#000000">
            <tspan x="1061.9482" y="673.521891">Timer Motor Down</tspan>
        </text>
        <text id="ABORT" sketch:type="MSTextLayer" transform="translate(757.000000, 769.500000) rotate(-45.000000) translate(-757.000000, -769.500000) " font-family="Helvetica" font-size="14" font-weight="normal" fill="#000000">
            <tspan x="733" y="775">ABORT</tspan>
        </text>
        <text id="Timer-Sort-2" sketch:type="MSTextLayer" transform="translate(1353.371707, 651.213806) rotate(-53.000000) translate(-1353.371707, -651.213806) " font-family="Helvetica" font-size="14" font-weight="normal" fill="#000000">
            <tspan x="1320.87171" y="656.713806">Timer Sort</tspan>
        </text>
        <text id="Push-Button-2" sketch:type="MSTextLayer" font-family="Helvetica" font-size="14" font-weight="normal" fill="#000000">
            <tspan x="1247" y="574">Push Button</tspan>
        </text>
        <text id="START/STOP" sketch:type="MSTextLayer" transform="translate(867.074585, 352.315832) rotate(53.000000) translate(-867.074585, -352.315832) " font-family="Helvetica" font-size="14" font-weight="normal" fill="#000000">
            <tspan x="823.574585" y="357.815832">START/STOP</tspan>
        </text>
        <text id="START/STOP-2" sketch:type="MSTextLayer" transform="translate(985.072909, 351.490833) rotate(-52.000000) translate(-985.072909, -351.490833) " font-family="Helvetica" font-size="14" font-weight="normal" fill="#000000">
            <tspan x="941.572909" y="356.990833">START/STOP</tspan>
        </text>
        <text id="Position-Sensor" sketch:type="MSTextLayer" transform="translate(1025.915927, 178.457945) rotate(-90.000000) translate(-1025.915927, -178.457945) " font-family="Helvetica" font-size="14" font-weight="normal" fill="#000000">
            <tspan x="976.415927" y="183.957945">Position Sensor</tspan>
        </text>
        <text id="START/STOP" sketch:type="MSTextLayer" transform="translate(434.554141, 621.047697) rotate(-316.000000) translate(-434.554141, -621.047697) " font-family="Helvetica" font-size="14" font-weight="normal" fill="#000000">
            <tspan x="391.054141" y="626.547697">START/STOP</tspan>
        </text>
        <text id="Timer-Interrupt" sketch:type="MSTextLayer" font-family="Helvetica" font-size="14" font-weight="normal" fill="#000000">
            <tspan x="480" y="130">Timer Interrupt</tspan>
        </text>
        <text id="Timer-Interrupt" sketch:type="MSTextLayer" font-family="Helvetica" font-size="14" font-weight="normal" fill="#000000">
            <tspan x="480" y="167">Timer Interrupt</tspan>
        </text>
        <path d="M821.378604,637.5 L821.378604,914.491787 C821.378604,922.780594 814.65463,929.5 806.372324,929.5 L85.1460777,929.5 C76.8583381,929.5 70.1397977,922.782655 70.1397977,914.492702 L70.1397977,335.909098" id="Line" stroke="#979797" stroke-linecap="square" sketch:type="MSShapeGroup"></path>
        <path id="Line-decoration-1" d="M70.1397977,336.862496 C69.0897977,340.642496 68.1897977,343.882496 67.1397977,347.662496 C69.2397977,347.662496 71.0397977,347.662496 73.1397977,347.662496 C72.0897977,343.882496 71.1897977,340.642496 70.1397977,336.862496 C70.1397977,336.862496 70.1397977,336.862496 70.1397977,336.862496 Z" stroke="#979797" stroke-linecap="square"></path>
        <path d="M1118.71868,644.36244 L1118.71868,928.999886 C1118.71868,937.28422 1112.01075,944 1103.71482,944 L66.9391684,944 C58.6527625,944 51.9353032,937.274785 51.9353032,929.006108 L51.9353032,335.902375" id="Line-16" stroke="#979797" stroke-linecap="square" sketch:type="MSShapeGroup"></path>
        <path id="Line-16-decoration-1" d="M51.9353032,336.550513 C50.8853032,340.330513 49.9853032,343.570513 48.9353032,347.350513 C51.0353032,347.350513 52.8353032,347.350513 54.9353032,347.350513 C53.8853032,343.570513 52.9853032,340.330513 51.9353032,336.550513 C51.9353032,336.550513 51.9353032,336.550513 51.9353032,336.550513 Z" stroke="#979797" stroke-linecap="square"></path>
        <path d="M1267.99554,792.649017 L1267.99554,946.900845 C1267.99554,955.185961 1261.2737,961.902375 1252.98582,961.902375 L47.5268878,961.902375 C39.2372527,961.902375 32.5171758,955.185762 32.5171758,946.907868 L32.5171758,331.722585" id="Line-18" stroke="#979797" stroke-linecap="square" sketch:type="MSShapeGroup"></path>
        <path id="Line-18-decoration-1" d="M32.5171758,331.760202 C31.4671758,335.540202 30.5671758,338.780202 29.5171758,342.560202 C31.6171758,342.560202 33.4171758,342.560202 35.5171758,342.560202 C34.4671758,338.780202 33.5671758,335.540202 32.5171758,331.760202 C32.5171758,331.760202 32.5171758,331.760202 32.5171758,331.760202 Z" stroke="#979797" stroke-linecap="square"></path>
        <path d="M1421.40588,642.613922 L1421.40588,964.002461 C1421.40588,972.285373 1414.68573,979 1406.40695,979 L30.5252443,979 C22.2415639,979 15.5263142,972.281854 15.5263142,963.991013 L15.5263142,323.162102" id="Line-19" stroke="#979797" stroke-linecap="square" sketch:type="MSShapeGroup"></path>
        <path id="Line-19-decoration-1" d="M15.5263142,323.394522 C14.4763142,327.174522 13.5763142,330.414522 12.5263142,334.194522 C14.6263142,334.194522 16.4263142,334.194522 18.5263142,334.194522 C17.4763142,330.414522 16.5763142,327.174522 15.5263142,323.394522 C15.5263142,323.394522 15.5263142,323.394522 15.5263142,323.394522 Z" stroke="#979797" stroke-linecap="square"></path>
        <text id="TImer-Interrupt" sketch:type="MSTextLayer" font-family="Helvetica" font-size="14" font-weight="normal" fill="#000000">
            <tspan x="933" y="875">TImer Interrupt</tspan>
        </text>
        <text id="TImer-Interrupt-2" sketch:type="MSTextLayer" font-family="Helvetica" font-size="14" font-weight="normal" fill="#000000">
            <tspan x="1178.9482" y="875">TImer Interrupt</tspan>
        </text>
        <text id="TImer-Interrupt-3" sketch:type="MSTextLayer" font-family="Helvetica" font-size="14" font-weight="normal" fill="#000000">
            <tspan x="1308.87171" y="875">TImer Interrupt</tspan>
        </text>
        <text id="TImer-Interrupt-4" sketch:type="MSTextLayer" font-family="Helvetica" font-size="14" font-weight="normal" fill="#000000">
            <tspan x="1435.79522" y="875">TImer Interrupt</tspan>
        </text>
    </g>
</svg>